<svg xmlns="http://www.w3.org/2000/svg" width="22" height="22" viewBox="0 0 22 22"><path fill="currentColor" d="M7 3h4v1h-4zM6 4h6v1h-6zM6 5h2v1h-2zM11 5h2v1h-2zM5 6h2v1h-2zM11 6h2v1h-2zM6 7h2v1h-2zM11 7h2v1h-2zM6 8h2v1h-2zM9 8h3v1h-3zM6 9h5v1h-5zM5 10h4v1h-4zM14 10h4v1h-4zM4 11h6v1h-6zM14 11h4v1h-4zM4 12h2v1h-2zM8 12h3v1h-3zM15 12h2v1h-2zM4 13h2v1h-2zM9 13h3v1h-3zM15 13h2v1h-2zM4 14h2v1h-2zM10 14h3v1h-3zM14 14h2v1h-2zM4 15h2v1h-2zM11 15h5v1h-5zM4 16h3v1h-3zM12 16h4v1h-4zM5 17h13v1h-13zM6 18h6v1h-6zM16 18h2v1h-2z"/></svg>
