<svg xmlns="http://www.w3.org/2000/svg" width="22" height="22" viewBox="0 0 22 22"><path fill="currentColor" d="M3 5h2v1h-2zM10 5h2v1h-2zM3 6h2v1h-2zM10 6h2v1h-2zM3 7h2v1h-2zM10 7h2v1h-2zM3 8h2v1h-2zM10 8h2v1h-2zM18 8h1v1h-1zM3 9h2v1h-2zM10 9h2v1h-2zM17 9h2v1h-2zM3 10h9v1h-9zM16 10h2v1h-2zM3 11h9v1h-9zM15 11h3v1h-3zM3 12h2v1h-2zM10 12h2v1h-2zM15 12h4v1h-4zM3 13h2v1h-2zM10 13h2v1h-2zM15 13h5v1h-5zM3 14h2v1h-2zM10 14h2v1h-2zM15 14h2v1h-2zM18 14h2v1h-2zM3 15h2v1h-2zM10 15h2v1h-2zM15 15h5v1h-5zM3 16h2v1h-2zM10 16h2v1h-2zM15 16h4v1h-4z"/></svg>
