<svg xmlns="http://www.w3.org/2000/svg" width="22" height="22" viewBox="0 0 22 22"><path fill="currentColor" d="M4 3h6v1h-6zM12 3h6v1h-6zM3 4h16v1h-16zM2 5h2v1h-2zM9 5h4v1h-4zM18 5h2v1h-2zM1 6h2v1h-2zM19 6h2v1h-2zM1 7h2v1h-2zM19 7h2v1h-2zM1 8h2v1h-2zM19 8h2v1h-2zM1 9h2v1h-2zM1 10h2v1h-2zM2 11h2v1h-2zM13 11h3v1h-3zM17 11h3v1h-3zM2 12h3v1h-3zM14 12h5v1h-5zM3 13h3v1h-3zM15 13h3v1h-3zM4 14h3v1h-3zM14 14h5v1h-5zM5 15h3v1h-3zM13 15h3v1h-3zM17 15h3v1h-3zM6 16h3v1h-3zM13 16h2v1h-2zM18 16h2v1h-2zM7 17h3v1h-3zM8 18h5v1h-5zM9 19h4v1h-4z"/></svg>
