<svg xmlns="http://www.w3.org/2000/svg" width="22" height="22" viewBox="0 0 22 22"><path fill="currentColor" d="M14 2h6v1h-6zM14 3h6v1h-6zM16 4h4v1h-4zM15 5h5v1h-5zM8 6h3v1h-3zM14 6h3v1h-3zM18 6h2v1h-2zM6 7h10v1h-10zM18 7h2v1h-2zM4 8h4v1h-4zM10 8h5v1h-5zM4 9h2v1h-2zM12 9h3v1h-3zM3 10h2v1h-2zM13 10h2v1h-2zM3 11h2v1h-2zM13 11h2v1h-2zM3 12h2v1h-2zM14 12h2v1h-2zM3 13h2v1h-2zM14 13h2v1h-2zM3 14h2v1h-2zM13 14h2v1h-2zM3 15h3v1h-3zM13 15h2v1h-2zM4 16h3v1h-3zM12 16h2v1h-2zM5 17h9v1h-9zM6 18h6v1h-6z"/></svg>
