<svg xmlns="http://www.w3.org/2000/svg" width="22" height="22" viewBox="0 0 22 22"><path fill="currentColor" d="M6 2h4v1h-4zM12 2h3v1h-3zM17 2h3v1h-3zM5 3h5v1h-5zM12 3h2v1h-2zM18 3h2v1h-2zM5 4h2v1h-2zM19 4h1v1h-1zM5 5h1v1h-1zM2 6h7v1h-7zM2 7h7v1h-7zM12 7h1v1h-1zM19 7h1v1h-1zM3 8h5v1h-5zM12 8h2v1h-2zM18 8h2v1h-2zM4 9h3v1h-3zM12 9h3v1h-3zM18 9h2v1h-2zM2 12h8v1h-8zM12 12h2v1h-2zM17 12h2v1h-2zM2 13h8v1h-8zM12 13h3v1h-3zM17 13h2v1h-2zM2 14h2v1h-2zM8 14h2v1h-2zM13 14h2v1h-2zM17 14h2v1h-2zM2 15h2v1h-2zM8 15h2v1h-2zM13 15h2v1h-2zM17 15h2v1h-2zM2 16h2v1h-2zM8 16h2v1h-2zM13 16h2v1h-2zM17 16h2v1h-2zM2 17h2v1h-2zM8 17h2v1h-2zM13 17h2v1h-2zM17 17h2v1h-2zM2 18h8v1h-8zM12 18h3v1h-3zM17 18h2v1h-2zM2 19h8v1h-8zM12 19h2v1h-2zM17 19h2v1h-2z"/></svg>
